<svg width="344" height="88" viewBox="0 0 344 88" fill="none" xmlns="http://www.w3.org/2000/svg" role="img" aria-labelledby="title desc">
  <title id="title">Fizyoflow logosu</title>
  <desc id="desc">Fizyoterapi ve klinik pilates merkezleri için dijital klinik altyapısı markası Fizyoflow.</desc>
  <g>
    <rect x="4" y="4" width="80" height="80" rx="26" fill="#F7FAF7"/>
    <rect x="4" y="4" width="80" height="80" rx="26" stroke="#DCEADC" stroke-width="2"/>
    <rect x="22" y="22" width="15" height="15" rx="5" fill="#EAF4EC" stroke="#CFE3D2" stroke-width="2.8"/>
    <rect x="52" y="22" width="15" height="15" rx="5" fill="#EAF4EC" stroke="#CFE3D2" stroke-width="2.8"/>
    <rect x="22" y="52" width="15" height="15" rx="5" fill="#EAF4EC" stroke="#CFE3D2" stroke-width="2.8"/>
    <rect x="52" y="52" width="15" height="15" rx="5" fill="#6F9274"/>
    <path d="M29 52C29 40 39 34 46 42C54 50 60 41 60 31" stroke="#6F9274" stroke-width="5.5" stroke-linecap="round" stroke-linejoin="round"/>
    <path d="M29 38C35 44 40 47 46 47C52 47 58 44 63 38" stroke="#5DADE2" stroke-width="3.8" stroke-linecap="round"/>
    <circle cx="46" cy="42" r="4.2" fill="#F8B84E"/>
    <path d="M57 60L60 63L68 55" stroke="#FFFFFF" stroke-width="3.2" stroke-linecap="round" stroke-linejoin="round"/>
  </g>
  <text x="104" y="43" fill="#1F2937" font-family="Poppins, Inter, Arial, sans-serif" font-size="31" font-weight="800" letter-spacing="0">Fizyoflow</text>
  <text x="106" y="65" fill="#6B7280" font-family="Poppins, Inter, Arial, sans-serif" font-size="13" font-weight="600" letter-spacing="0">Dijital klinik altyapısı</text>
</svg>
