<svg width="96" height="96" viewBox="0 0 96 96" fill="none" xmlns="http://www.w3.org/2000/svg" role="img" aria-labelledby="title desc">
  <title id="title">Fizyoflow marka sembolü</title>
  <desc id="desc">Klinik düzen, hareket ritmi, ölçüm ve dijital takip akışını temsil eden premium sağlık teknoloji sembolü.</desc>
  <rect x="5" y="5" width="86" height="86" rx="28" fill="#F7FAF7"/>
  <rect x="5" y="5" width="86" height="86" rx="28" stroke="#DCEADC" stroke-width="2"/>
  <rect x="24" y="24" width="16" height="16" rx="5" fill="#EAF4EC" stroke="#CFE3D2" stroke-width="3"/>
  <rect x="56" y="24" width="16" height="16" rx="5" fill="#EAF4EC" stroke="#CFE3D2" stroke-width="3"/>
  <rect x="24" y="56" width="16" height="16" rx="5" fill="#EAF4EC" stroke="#CFE3D2" stroke-width="3"/>
  <rect x="56" y="56" width="16" height="16" rx="5" fill="#6F9274"/>
  <path d="M31 56C31 43 42 36 50 45C58 54 65 44 65 34" stroke="#6F9274" stroke-width="6" stroke-linecap="round" stroke-linejoin="round"/>
  <path d="M31 40C37 47 43 50 50 50C56 50 62 47 68 40" stroke="#5DADE2" stroke-width="4" stroke-linecap="round"/>
  <circle cx="50" cy="45" r="4.5" fill="#F8B84E"/>
  <path d="M61 64L65 68L73 59" stroke="#FFFFFF" stroke-width="3.5" stroke-linecap="round" stroke-linejoin="round"/>
</svg>
