<svg width="1200" height="630" viewBox="0 0 1200 630" fill="none" xmlns="http://www.w3.org/2000/svg" role="img" aria-labelledby="title desc">
  <title id="title">Fizyoflow Open Graph görseli</title>
  <desc id="desc">Fizyoterapi klinikleri için dijital klinik altyapısı.</desc>
  <rect width="1200" height="630" fill="#F8FAFB"/>
  <path d="M0 0H1200V630H0V0Z" fill="url(#bg)"/>
  <path d="M780 -80C990 18 1135 173 1200 387V630H532C583 465 651 321 736 198C786 126 801 35 780 -80Z" fill="#EDF5EE"/>
  <path d="M-80 535C86 419 254 393 424 458C545 505 666 489 786 410C893 339 1039 329 1224 380" stroke="#DDEBDE" stroke-width="2"/>
  <g filter="url(#shadow)">
    <rect x="82" y="82" width="152" height="152" rx="48" fill="#F7FAF7"/>
    <rect x="82" y="82" width="152" height="152" rx="48" stroke="#DDEBDE" stroke-width="4"/>
    <rect x="118" y="118" width="28" height="28" rx="9" fill="#EAF4EC" stroke="#CFE3D2" stroke-width="5"/>
    <rect x="174" y="118" width="28" height="28" rx="9" fill="#EAF4EC" stroke="#CFE3D2" stroke-width="5"/>
    <rect x="118" y="174" width="28" height="28" rx="9" fill="#EAF4EC" stroke="#CFE3D2" stroke-width="5"/>
    <rect x="174" y="174" width="28" height="28" rx="9" fill="#6F9274"/>
    <path d="M131 174C131 151 150 139 164 155C178 171 190 153 190 135" stroke="#6F9274" stroke-width="11" stroke-linecap="round" stroke-linejoin="round"/>
    <path d="M131 146C142 158 153 163 164 163C175 163 185 158 196 146" stroke="#5DADE2" stroke-width="7" stroke-linecap="round"/>
    <circle cx="164" cy="155" r="8" fill="#F8B84E"/>
    <path d="M183 189L190 196L204 180" stroke="#FFFFFF" stroke-width="6" stroke-linecap="round" stroke-linejoin="round"/>
  </g>
  <text x="82" y="318" fill="#1F2937" font-family="Poppins, Inter, Arial, sans-serif" font-size="70" font-weight="800" letter-spacing="0">Fizyoflow</text>
  <text x="86" y="380" fill="#496C4F" font-family="Poppins, Inter, Arial, sans-serif" font-size="31" font-weight="700" letter-spacing="0">Fizyoterapi klinikleri için dijital klinik altyapısı</text>
  <text x="88" y="446" fill="#6B7280" font-family="Poppins, Inter, Arial, sans-serif" font-size="24" font-weight="500" letter-spacing="0">Mobil yönetim, public klinik vitrini, SEO, Maps ve lead akışı tek platformda.</text>
  <g>
    <rect x="88" y="498" width="144" height="46" rx="23" fill="#6F9274"/>
    <text x="116" y="529" fill="#FFFFFF" font-family="Poppins, Inter, Arial, sans-serif" font-size="18" font-weight="800">Mobil</text>
    <rect x="248" y="498" width="126" height="46" rx="23" fill="#EDF5EE" stroke="#DDEBDE"/>
    <text x="279" y="529" fill="#496C4F" font-family="Poppins, Inter, Arial, sans-serif" font-size="18" font-weight="800">Web</text>
    <rect x="390" y="498" width="126" height="46" rx="23" fill="#EDF5EE" stroke="#DDEBDE"/>
    <text x="421" y="529" fill="#496C4F" font-family="Poppins, Inter, Arial, sans-serif" font-size="18" font-weight="800">SEO</text>
  </g>
  <g opacity="0.92">
    <rect x="794" y="102" width="258" height="430" rx="44" fill="#111827"/>
    <rect x="810" y="126" width="226" height="382" rx="30" fill="#F8FAFB"/>
    <rect x="838" y="154" width="170" height="76" rx="18" fill="#EDF5EE" stroke="#DDEBDE"/>
    <rect x="838" y="252" width="76" height="76" rx="18" fill="#FFFFFF" stroke="#DDEBDE"/>
    <rect x="932" y="252" width="76" height="76" rx="18" fill="#FFFFFF" stroke="#DDEBDE"/>
    <rect x="838" y="354" width="170" height="110" rx="22" fill="#F2F8F3" stroke="#DDEBDE"/>
    <circle cx="873" cy="292" r="14" fill="#6F9274"/>
    <circle cx="968" cy="292" r="14" fill="#5DADE2"/>
    <path d="M866 396H980" stroke="#6F9274" stroke-width="10" stroke-linecap="round"/>
    <path d="M866 426H945" stroke="#97BB9C" stroke-width="10" stroke-linecap="round"/>
  </g>
  <defs>
    <linearGradient id="bg" x1="0" y1="0" x2="1200" y2="630" gradientUnits="userSpaceOnUse">
      <stop stop-color="#FFFFFF"/>
      <stop offset="1" stop-color="#EDF5EE"/>
    </linearGradient>
    <filter id="shadow" x="42" y="52" width="232" height="232" filterUnits="userSpaceOnUse" color-interpolation-filters="sRGB">
      <feDropShadow dx="0" dy="18" stdDeviation="18" flood-color="#0F172A" flood-opacity="0.16"/>
    </filter>
  </defs>
</svg>
