<svg xmlns="http://www.w3.org/2000/svg" width="1024" height="1024" viewBox="0 0 1024 1024">
  <defs>
    <linearGradient id="bg" x1="128" y1="72" x2="896" y2="952" gradientUnits="userSpaceOnUse">
      <stop offset="0" stop-color="#84A88E"/>
      <stop offset="0.58" stop-color="#5F8F6D"/>
      <stop offset="1" stop-color="#3F7153"/>
    </linearGradient>
    <linearGradient id="mark" x1="307" y1="246" x2="718" y2="742" gradientUnits="userSpaceOnUse">
      <stop offset="0" stop-color="#FFFFFF"/>
      <stop offset="0.48" stop-color="#F8FBF7"/>
      <stop offset="1" stop-color="#E9F0E7"/>
    </linearGradient>
    <filter id="softShadow" x="-20%" y="-20%" width="140%" height="140%" color-interpolation-filters="sRGB">
      <feDropShadow dx="0" dy="22" stdDeviation="24" flood-color="#1A3325" flood-opacity="0.28"/>
    </filter>
    <filter id="innerGlow" x="-20%" y="-20%" width="140%" height="140%" color-interpolation-filters="sRGB">
      <feDropShadow dx="0" dy="-6" stdDeviation="8" flood-color="#FFFFFF" flood-opacity="0.22"/>
    </filter>
  </defs>
  <rect width="1024" height="1024" fill="url(#bg)"/>
  <circle cx="786" cy="138" r="230" fill="#FFFFFF" opacity="0.10"/>
  <circle cx="186" cy="850" r="260" fill="#244A34" opacity="0.16"/>
  <path d="M290 277C290 238.34 321.34 207 360 207H693C727.794 207 756 235.206 756 270C756 304.794 727.794 333 693 333H426V442H627C661.794 442 690 470.206 690 505C690 539.794 661.794 568 627 568H426V625C426 670.287 389.287 707 344 707H290V277Z" fill="url(#mark)" filter="url(#softShadow)"/>
  <path d="M290 762C290 731.624 314.624 707 345 707H379C405.51 707 427 728.49 427 755C427 781.51 405.51 803 379 803H331C308.356 803 290 784.644 290 762Z" fill="url(#mark)" filter="url(#innerGlow)"/>
  <circle cx="733" cy="461" r="38" fill="url(#mark)" filter="url(#softShadow)"/>
</svg>
