<svg xmlns="http://www.w3.org/2000/svg" width="512" height="512" viewBox="0 0 512 512">
  <defs>
    <linearGradient id="bg" x1="62" y1="24" x2="430" y2="476" gradientUnits="userSpaceOnUse">
      <stop offset="0" stop-color="#F6FAF3"/>
      <stop offset="0.38" stop-color="#DCEADE"/>
      <stop offset="0.72" stop-color="#9ABFA3"/>
      <stop offset="1" stop-color="#5D936C"/>
    </linearGradient>
    <linearGradient id="panel" x1="390" y1="26" x2="242" y2="402" gradientUnits="userSpaceOnUse">
      <stop offset="0" stop-color="#FFFFFF" stop-opacity="0.74"/>
      <stop offset="1" stop-color="#7BAA84" stop-opacity="0.42"/>
    </linearGradient>
    <linearGradient id="mark" x1="97" y1="94" x2="344" y2="438" gradientUnits="userSpaceOnUse">
      <stop offset="0" stop-color="#FFFFFF"/>
      <stop offset="0.58" stop-color="#FBFDF9"/>
      <stop offset="1" stop-color="#EDF5EB"/>
    </linearGradient>
    <filter id="shadow" x="-20%" y="-20%" width="140%" height="140%" color-interpolation-filters="sRGB">
      <feDropShadow dx="0" dy="12" stdDeviation="11" flood-color="#274B35" flood-opacity="0.34"/>
    </filter>
    <filter id="ribbonShadow" x="-18%" y="-30%" width="136%" height="160%" color-interpolation-filters="sRGB">
      <feDropShadow dx="0" dy="7" stdDeviation="7" flood-color="#315C40" flood-opacity="0.28"/>
    </filter>
  </defs>
  <rect width="512" height="512" rx="104" fill="url(#bg)"/>
  <path d="M46 484C141 369 238 366 314 296C386 229 456 160 494 39V396C494 450 450 494 396 494H58C53 494 48 490 46 484Z" fill="url(#panel)"/>
  <path d="M48 456C123 374 195 351 276 332C352 314 421 274 484 191" fill="none" stroke="#FFFFFF" stroke-width="3" stroke-opacity="0.78"/>
  <g filter="url(#shadow)">
    <path d="M97 143C97 122.84 113.34 106 133.5 106H322V142C322 159.397 307.897 173.5 290.5 173.5H161V226.5H260C277.397 226.5 291.5 240.603 291.5 258C291.5 275.397 277.397 289.5 260 289.5H161V345.5C161 364.83 145.33 380.5 126 380.5H97V143Z" fill="url(#mark)"/>
    <path d="M219.5 267.5C219.5 247.34 235.84 231 256 231H422.5V264C422.5 281.397 408.397 295.5 391 295.5H276.5V318.5H374.5V347.5C374.5 364.897 360.397 379 343 379H276.5V412C276.5 431.33 260.83 447 241.5 447H219.5V267.5Z" fill="url(#mark)"/>
    <circle cx="385" cy="181.5" r="21.5" fill="url(#mark)"/>
  </g>
  <path d="M138 380.5C207 252 303 187 390.5 204.5C422.5 210.5 448 201 468 179" fill="none" stroke="#FFFFFF" stroke-width="22" stroke-linecap="round" filter="url(#ribbonShadow)"/>
  <path d="M138 380.5C207 252 303 187 390.5 204.5C422.5 210.5 448 201 468 179" fill="none" stroke="#F6FAF3" stroke-width="14" stroke-linecap="round"/>
</svg>
